name Walk9.mot
datacolumns 19
datarows 20
range 1.15000000 1.24500000
endheader

                time	   L_ground_force_vx	   L_ground_force_vy	   L_ground_force_vz	   L_ground_force_px	   L_ground_force_py	   L_ground_force_pz	   R_ground_force_vx	   R_ground_force_vy	   R_ground_force_vz	   R_ground_force_px	   R_ground_force_py	   R_ground_force_pz	   L_ground_torque_x	   L_ground_torque_y	   L_ground_torque_z	   R_ground_torque_x	   R_ground_torque_y	   R_ground_torque_z	
          1.15000000	        -10.73570706	        136.41866550	        -19.26135265	         -0.10606837	          0.00000000	          0.01228333	          0.00000000	         -0.00000000	         -0.00000000	         -0.00000000	          0.00000000	         -0.00000000	          0.00000000	          0.37229335	          0.00000000	          0.00000000	         -0.00000000	          0.00000000	
          1.15500000	        -17.73011792	        192.13133147	        -26.53651674	         -0.13746292	          0.00000000	          0.01599383	          0.00000000	         -0.00000000	         -0.00000000	         -0.00000000	          0.00000000	         -0.00000000	          0.00000000	          0.50128089	          0.00000000	          0.00000000	         -0.00000000	          0.00000000	
          1.16000000	        -26.45097705	        255.31550901	        -34.60848669	         -0.16950317	          0.00000000	          0.01981152	          0.00000000	         -0.00000000	         -0.00000000	          0.00000000	          0.00000000	          0.00000000	          0.00000000	          0.64060844	          0.00000000	          0.00000000	         -0.00000000	          0.00000000	
          1.16500000	        -36.80801483	        322.47567603	        -42.92599457	         -0.19952355	          0.00000000	          0.02342321	          0.00000000	          0.00000000	          0.00000000	          0.00000000	          0.00000000	          0.00000000	          0.00000000	          0.77918715	          0.00000000	          0.00000000	         -0.00000000	          0.00000000	
          1.17000000	        -48.54617054	        388.68437309	        -50.62226855	         -0.22572979	          0.00000000	          0.02658303	          0.00000000	          0.00000000	          0.00000000	          0.00000000	          0.00000000	          0.00000000	          0.00000000	          0.90209469	          0.00000000	          0.00000000	         -0.00000000	          0.00000000	
          1.17500000	        -61.24487850	        449.52429069	        -56.63175443	         -0.24726525	          0.00000000	          0.02912576	         -0.00000000	          0.00000000	          0.00000000	          0.00000000	          0.00000000	          0.00000000	          0.00000000	          0.99531889	          0.00000000	          0.00000000	         -0.00000000	          0.00000000	
          1.18000000	        -74.30156705	        502.63179515	        -60.02880739	         -0.26394784	          0.00000000	          0.03095723	         -0.00000000	          0.00000000	          0.00000000	          0.00000000	          0.00000000	          0.00000000	          0.00000000	          1.04864354	          0.00000000	          0.00000000	          0.00000000	          0.00000000	
          1.18500000	        -86.98534861	        547.30853160	        -60.29640893	         -0.27603829	          0.00000000	          0.03204678	         -0.00000000	          0.00000000	          0.00000000	          0.00000000	          0.00000000	          0.00000000	          0.00000000	          1.05385730	          0.00000000	          0.00000000	          0.00000000	          0.00000000	
          1.19000000	        -98.58378206	        583.90412725	        -57.38024438	         -0.28405434	          0.00000000	          0.03241222	         -0.00000000	          0.00000000	          0.00000000	          0.00000000	          0.00000000	          0.00000000	          0.00000000	          1.00488952	          0.00000000	          0.00000000	          0.00000000	          0.00000000	
          1.19500000	       -108.59073063	        613.60193019	        -51.59478242	         -0.28863117	          0.00000000	          0.03210218	         -0.00000000	          0.00000000	          0.00000000	          0.00000000	          0.00000000	          0.00000000	          0.00000000	          0.89988733	          0.00000000	          0.00000000	          0.00000000	          0.00000000	
          1.20000000	       -116.86268263	        638.23968461	        -43.46730930	         -0.29042077	          0.00000000	          0.03118173	         -0.00000000	          0.00000000	          0.00000000	          0.00000000	          0.00000000	          0.00000000	          0.00000000	          0.74230955	          0.00000000	          0.00000000	          0.00000000	          0.00000000	
          1.20500000	       -123.65609534	        660.02911065	        -33.60477386	         -0.29002943	          0.00000000	          0.02972458	         -0.00000000	          0.00000001	          0.00000000	          0.00000000	          0.00000000	          0.00000000	          0.00000000	          0.54015834	          0.00000000	          0.00000000	          0.00000000	          0.00000000	
          1.21000000	       -129.49276559	        681.19062279	        -22.63030532	         -0.28798968	          0.00000000	          0.02781236	         -0.00000000	          0.00000001	          0.00000000	          0.00000000	          0.00000000	          0.00000000	          0.00000000	          0.30517570	          0.00000000	          0.00000000	          0.00000000	          0.00000000	
          1.21500000	       -134.92322590	        703.59364828	        -11.17427967	         -0.28475628	          0.00000000	          0.02553713	         -0.00000000	          0.00000001	          0.00000000	          0.00000000	          0.00000000	          0.00000000	          0.00000000	          0.05155386	          0.00000000	          0.00000000	          0.00000000	          0.00000000	
          1.22000000	       -140.32524353	        728.52346356	          0.12828255	         -0.28071470	          0.00000000	          0.02300270	         -0.00000000	          0.00000001	          0.00000000	          0.00000000	          0.00000000	          0.00000000	          0.00000000	         -0.20534388	          0.00000000	          0.00000000	          0.00000000	          0.00000000	
          1.22500000	       -145.81871141	        756.59233231	         10.66287287	         -0.27619203	          0.00000000	          0.02032330	         -0.00000000	          0.00000001	          0.00000000	          0.00000000	          0.00000000	          0.00000000	          0.00000000	         -0.44992606	          0.00000000	          0.00000000	          0.00000000	          0.00000000	
          1.23000000	       -151.29425490	        787.75621510	         19.89139320	         -0.27146140	          0.00000000	          0.01761570	         -0.00000000	          0.00000000	          0.00000000	         -0.00000000	          0.00000000	         -0.00000000	          0.00000000	         -0.66751416	          0.00000000	          0.00000000	          0.00000000	          0.00000000	
          1.23500000	       -156.51148594	        821.43303875	         27.42857064	         -0.26673851	          0.00000000	          0.01498449	         -0.00000000	         -0.00000000	         -0.00000000	         -0.00000000	          0.00000000	         -0.00000000	          0.00000000	         -0.84719424	          0.00000000	          0.00000000	          0.00000000	          0.00000000	
          1.24000000	       -161.22051128	        856.68861080	         33.09609563	         -0.26217964	          0.00000000	          0.01250798	         -0.00000000	         -0.00000001	         -0.00000000	         -0.00000000	          0.00000000	         -0.00000000	          0.00000000	         -0.98381335	          0.00000000	          0.00000000	          0.00000000	          0.00000000	
          1.24500000	       -165.24755594	        892.42037028	         36.91458769	         -0.25788433	          0.00000000	          0.01023426	          0.00000000	         -0.00000001	         -0.00000000	         -0.00000000	          0.00000000	         -0.00000000	          0.00000000	         -1.07723746	          0.00000000	          0.00000000	          0.00000000	          0.00000000	
